<svg width="40" height="41" viewBox="0 0 40 41" fill="none" xmlns="http://www.w3.org/2000/svg">
<path d="M20 0.499023C8.99999 0.499023 0 9.52977 0 20.6523C0 30.7088 7.31999 39.0557 16.88 40.5641V26.485H11.8V20.6523H16.88V16.2073C16.88 11.1589 19.86 8.38333 24.44 8.38333C26.62 8.38333 28.9 8.76547 28.9 8.76547V13.7334H26.38C23.9 13.7334 23.12 15.2821 23.12 16.871V20.6523H28.68L27.78 26.485H23.12V40.5641C27.8328 39.8156 32.1244 37.3974 35.2198 33.746C38.3152 30.0945 40.0106 25.4505 39.9999 20.6523C39.9999 9.52977 31 0.499023 20 0.499023Z" fill="white"/>
</svg>
