<svg width="375" height="371" viewBox="0 0 375 371" fill="none" xmlns="http://www.w3.org/2000/svg">
<g clip-path="url(#clip0_1604_1251)">
<rect width="375" height="371" fill="white"/>
<g filter="url(#filter0_d_1604_1251)">
<path d="M41.92 78V37.872H25.92V33.2H62.912V37.872H46.912V78H41.92ZM63.56 78V46H68.552V52.976C69.832 48.624 73.48 46 77.576 46H81.544V50.672H77.576C72.2 50.672 68.552 54.32 68.552 63.408V78H63.56ZM94.911 79.024C89.791 79.024 84.095 75.824 84.095 69.424C84.095 62.384 89.151 59.696 97.407 58.608C101.183 58.096 106.559 57.648 104.767 53.04C103.615 50.032 99.327 49.648 97.407 49.648C92.287 49.648 89.727 51.888 89.727 55.728L84.735 55.088C84.735 48.048 91.647 44.976 97.407 44.976C103.167 44.976 109.631 47.536 109.631 55.216V78H104.959V71.6C103.551 75.76 99.839 79.024 94.911 79.024ZM89.087 69.68C89.087 72.24 91.711 74.352 94.911 74.352C100.031 74.352 104.959 70.768 104.959 61.808V60.08C103.743 61.808 100.735 62.768 96.447 63.28C91.391 63.984 89.087 66.48 89.087 69.68ZM137.234 56.944C137.234 51.184 134.482 49.648 130.642 49.648C126.802 49.648 121.682 52.208 121.682 63.088V78H116.69V46H121.682V52.912C122.706 48.496 126.354 44.976 132.242 44.976C139.282 44.976 142.226 49.904 142.226 56.944V78H137.234V56.944ZM161.415 79.024C153.735 79.024 147.335 74.48 147.335 66.16L152.007 65.52C152.007 71.28 156.935 74.352 161.415 74.352C165.895 74.352 169.415 72.88 169.415 69.04C169.415 65.2 166.919 64.176 163.271 63.664L157.639 62.896C152.583 62.192 149.127 58.736 149.127 54.256C149.127 48.496 154.055 44.976 161.095 44.976C168.135 44.976 172.615 49.136 172.615 54.896L167.943 55.536C167.943 51.696 165.575 49.648 161.095 49.648C157.255 49.648 154.119 51.056 154.119 54.256C154.119 56.816 155.847 57.968 159.623 58.544L164.487 59.248C170.119 60.08 174.407 63.28 174.407 69.04C174.407 74.8 169.095 79.024 161.415 79.024ZM181.825 42.416C181.825 34.928 184.897 32.56 190.401 32.56H194.817V37.232H191.169C187.713 37.232 186.497 37.872 186.497 43.76V46H194.817V50.672H186.497V78H181.825V50.672H176.385V46H181.825V42.416ZM211.896 79.024C204.217 79.024 196.792 73.648 196.792 62.128C196.792 50.608 204.217 44.976 211.896 44.976C219.576 44.976 226.937 50.608 226.937 62.128C226.937 73.648 219.576 79.024 211.896 79.024ZM201.785 62.128C201.785 69.168 204.856 74.352 211.896 74.352C218.937 74.352 222.009 69.168 222.009 62.128C222.009 55.088 218.937 49.648 211.896 49.648C204.856 49.648 201.785 55.088 201.785 62.128ZM232.7 78V46H237.692V52.976C238.972 48.624 242.62 46 246.716 46H250.684V50.672H246.716C241.34 50.672 237.692 54.32 237.692 63.408V78H232.7ZM295.603 56.944C295.603 51.184 292.851 49.648 289.011 49.648C285.171 49.648 280.051 52.208 280.051 60.528V78H275.059V56.944C275.059 51.184 272.307 49.648 268.467 49.648C264.627 49.648 259.507 52.208 259.507 63.088V78H254.515V46H259.507V52.912C260.531 48.496 264.179 44.976 270.067 44.976C275.443 44.976 278.387 47.856 279.539 52.336C280.819 48.368 284.851 44.976 290.611 44.976C297.651 44.976 300.595 49.904 300.595 56.944V78H295.603V56.944ZM29.76 145V100.2H34.752V145H29.76ZM55.363 146.024C46.403 146.024 41.155 137.96 41.155 129C41.155 120.04 46.403 111.976 55.363 111.976C61.187 111.976 64.835 115.368 65.859 119.784V100.2H70.531V145H65.859V138.216C64.835 142.632 61.187 146.024 55.363 146.024ZM46.147 129C46.147 137.32 50.499 141.352 56.003 141.352C61.123 141.352 65.859 137.32 65.859 129C65.859 120.68 61.123 116.648 56.003 116.648C50.883 116.648 46.147 120.68 46.147 129ZM91.449 146.024C83.769 146.024 76.345 140.648 76.345 129.128C76.345 117.608 83.769 111.976 91.449 111.976C99.129 111.976 105.209 117.608 105.209 129.128V130.28H81.337C81.337 136.04 85.049 141.352 91.449 141.352C97.849 141.352 99.385 137.704 100.025 135.144L105.017 135.784C103.737 142.184 99.129 146.024 91.449 146.024ZM81.337 125.928H100.217C100.217 122.088 97.849 116.648 91.449 116.648C85.049 116.648 81.337 122.088 81.337 125.928ZM120.539 146.024C115.418 146.024 109.722 142.824 109.722 136.424C109.722 129.384 114.779 126.696 123.035 125.608C126.811 125.096 132.187 124.648 130.395 120.04C129.243 117.032 124.955 116.648 123.035 116.648C117.915 116.648 115.354 118.888 115.354 122.728L110.362 122.088C110.362 115.048 117.274 111.976 123.035 111.976C128.795 111.976 135.259 114.536 135.259 122.216V145H130.587V138.6C129.179 142.76 125.467 146.024 120.539 146.024ZM114.715 136.68C114.715 139.24 117.339 141.352 120.539 141.352C125.659 141.352 130.587 137.768 130.587 128.808V127.08C129.371 128.808 126.363 129.768 122.075 130.28C117.019 130.984 114.715 133.48 114.715 136.68ZM154.79 146.024C147.11 146.024 140.71 141.48 140.71 133.16L145.382 132.52C145.382 138.28 150.31 141.352 154.79 141.352C159.27 141.352 162.79 139.88 162.79 136.04C162.79 132.2 160.294 131.176 156.646 130.664L151.014 129.896C145.958 129.192 142.502 125.736 142.502 121.256C142.502 115.496 147.43 111.976 154.47 111.976C161.51 111.976 165.99 116.136 165.99 121.896L161.318 122.536C161.318 118.696 158.95 116.648 154.47 116.648C150.63 116.648 147.494 118.056 147.494 121.256C147.494 123.816 149.222 124.968 152.998 125.544L157.862 126.248C163.494 127.08 167.782 130.28 167.782 136.04C167.782 141.8 162.47 146.024 154.79 146.024ZM187.522 145V113H192.514V145H187.522ZM187.01 107.88V101.864H193.026V107.88H187.01ZM221.244 123.944C221.244 118.184 218.492 116.648 214.652 116.648C210.812 116.648 205.692 119.208 205.692 130.088V145H200.7V113H205.692V119.912C206.716 115.496 210.364 111.976 216.252 111.976C223.292 111.976 226.236 116.904 226.236 123.944V145H221.244V123.944ZM244.401 145C238.897 145 236.145 142.632 236.145 137.064V117.672H230.705V113H236.145V103.336L240.497 102.696V113H248.817V117.672H240.497V135.72C240.497 139.688 242.033 140.328 245.169 140.328H248.817V145H244.401ZM267.779 146.024C260.099 146.024 252.675 140.648 252.675 129.128C252.675 117.608 260.099 111.976 267.779 111.976C275.459 111.976 282.819 117.608 282.819 129.128C282.819 140.648 275.459 146.024 267.779 146.024ZM257.667 129.128C257.667 136.168 260.739 141.352 267.779 141.352C274.819 141.352 277.891 136.168 277.891 129.128C277.891 122.088 274.819 116.648 267.779 116.648C260.739 116.648 257.667 122.088 257.667 129.128Z" fill="white"/>
<path d="M31.2 229V173H37.44V229H31.2ZM99.185 202.68C99.185 195.48 95.745 193.56 90.945 193.56C86.145 193.56 79.745 196.76 79.745 207.16V229H73.505V202.68C73.505 195.48 70.065 193.56 65.265 193.56C60.465 193.56 54.065 196.76 54.065 210.36V229H47.825V189H54.065V197.64C55.345 192.12 59.905 187.72 67.265 187.72C73.985 187.72 77.665 191.32 79.105 196.92C80.705 191.96 85.745 187.72 92.945 187.72C101.745 187.72 105.425 193.88 105.425 202.68V229H99.185V202.68ZM134.776 230.28C127.496 230.28 122.936 226.04 121.656 220.52V245H115.816V189H121.656V197.48C122.936 191.96 127.496 187.72 134.776 187.72C145.976 187.72 152.536 197.8 152.536 209C152.536 220.2 145.976 230.28 134.776 230.28ZM121.656 209C121.656 219.4 127.576 224.44 133.976 224.44C140.376 224.44 146.296 219.4 146.296 209C146.296 198.6 140.856 193.56 133.976 193.56C127.576 193.56 121.656 198.6 121.656 209ZM171.704 230.28C165.304 230.28 158.184 226.28 158.184 218.28C158.184 209.48 164.504 206.12 174.824 204.76C179.544 204.12 186.264 203.56 184.024 197.8C182.584 194.04 177.224 193.56 174.824 193.56C168.424 193.56 165.224 196.36 165.224 201.16L158.984 200.36C158.984 191.56 167.624 187.72 174.824 187.72C182.024 187.72 190.104 190.92 190.104 200.52V229H184.264V221C182.504 226.2 177.864 230.28 171.704 230.28ZM164.424 218.6C164.424 221.8 167.704 224.44 171.704 224.44C178.104 224.44 184.264 219.96 184.264 208.76V206.6C182.744 208.76 178.984 209.96 173.624 210.6C167.304 211.48 164.424 214.6 164.424 218.6ZM215.427 230.28C205.827 230.28 196.547 223.56 196.547 209.16C196.547 194.76 205.827 187.72 215.427 187.72C225.027 187.72 231.187 192.36 233.027 203.64L226.787 204.44C225.507 198.2 222.627 193.56 215.427 193.56C206.627 193.56 202.787 201.16 202.787 209.16C202.787 217.16 206.627 224.44 215.427 224.44C222.627 224.44 225.507 220.36 226.787 214.04L233.027 214.84C231.187 225.96 225.027 230.28 215.427 230.28ZM253.398 229C246.518 229 243.078 226.04 243.078 219.08V194.84H236.278V189H243.078V176.92L248.518 176.12V189H258.918V194.84H248.518V217.4C248.518 222.36 250.438 223.16 254.358 223.16H258.918V229H253.398ZM270.503 184.52C270.503 175.16 274.343 172.2 281.223 172.2H286.743V178.04H282.183C277.863 178.04 276.343 178.84 276.343 186.2V189H286.743V194.84H276.343V229H270.503V194.84H263.703V189H270.503V184.52ZM304.074 230.28C295.274 230.28 291.594 224.12 291.594 215.32V189H297.834V215.32C297.834 222.52 301.274 224.44 306.074 224.44C310.874 224.44 317.274 221.24 317.274 207.64V189H323.514V229H317.274V220.36C315.994 225.88 311.434 230.28 304.074 230.28ZM333.881 229V172.2H340.121V229H333.881ZM31.2 313V257H39.44L56.8 304.92L74.08 257H82.4V313H76.16V267.64L59.76 313H53.84L37.44 267.64V313H31.2ZM108.265 313L88.825 257H95.065L112.265 306.68L128.825 257H135.065L116.425 313H108.265ZM141.441 313V257H159.041C163.841 257 177.521 258.68 177.521 272.68C177.521 286.6 163.841 288.28 159.041 288.28H147.681V313H141.441ZM147.681 282.44H157.441C166.241 282.44 171.281 279.88 171.281 272.68C171.281 265.48 166.241 262.84 157.441 262.84H147.681V282.44ZM195.922 314.28C186.322 314.28 178.322 308.6 178.322 298.2L184.162 297.4C184.162 304.6 190.322 308.44 195.922 308.44C201.522 308.44 205.922 306.6 205.922 301.8C205.922 297 202.802 295.72 198.242 295.08L191.202 294.12C184.882 293.24 180.562 288.92 180.562 283.32C180.562 276.12 186.722 271.72 195.522 271.72C204.322 271.72 209.922 276.92 209.922 284.12L204.082 284.92C204.082 280.12 201.122 277.56 195.522 277.56C190.722 277.56 186.802 279.32 186.802 283.32C186.802 286.52 188.962 287.96 193.682 288.68L199.762 289.56C206.802 290.6 212.162 294.6 212.162 301.8C212.162 309 205.522 314.28 195.922 314.28Z" fill="#010383"/>
</g>
</g>
<defs>
<filter id="filter0_d_1604_1251" x="15.9219" y="22.5625" width="334.199" height="301.719" filterUnits="userSpaceOnUse" color-interpolation-filters="sRGB">
<feFlood flood-opacity="0" result="BackgroundImageFix"/>
<feColorMatrix in="SourceAlpha" type="matrix" values="0 0 0 0 0 0 0 0 0 0 0 0 0 0 0 0 0 0 127 0" result="hardAlpha"/>
<feOffset/>
<feGaussianBlur stdDeviation="5"/>
<feComposite in2="hardAlpha" operator="out"/>
<feColorMatrix type="matrix" values="0 0 0 0 0.00392157 0 0 0 0 0.0117647 0 0 0 0 0.513726 0 0 0 1 0"/>
<feBlend mode="normal" in2="BackgroundImageFix" result="effect1_dropShadow_1604_1251"/>
<feBlend mode="normal" in="SourceGraphic" in2="effect1_dropShadow_1604_1251" result="shape"/>
</filter>
<clipPath id="clip0_1604_1251">
<rect width="375" height="371" fill="white"/>
</clipPath>
</defs>
</svg>
