<svg width="40" height="41" viewBox="0 0 40 41" fill="none" xmlns="http://www.w3.org/2000/svg">
<path d="M11.6 0L28.4 0C34.8 0 40 5.20847 40 11.6189L40 28.4462C40 31.5278 38.7779 34.4831 36.6024 36.662C34.427 38.841 31.4765 40.0651 28.4 40.0651L11.6 40.0651C5.2 40.0651 0 34.8567 0 28.4462L0 11.6189C0 8.53737 1.22214 5.58206 3.39756 3.40309C5.57298 1.22413 8.52349 0 11.6 0ZM11.2 4.00651C9.29044 4.00651 7.45909 4.76632 6.10883 6.11878C4.75857 7.47124 4 9.30557 4 11.2182L4 28.8469C4 32.8334 7.22 36.0586 11.2 36.0586L28.8 36.0586C30.7096 36.0586 32.5409 35.2988 33.8912 33.9464C35.2414 32.5939 36 30.7596 36 28.8469L36 11.2182C36 7.23176 32.78 4.00651 28.8 4.00651L11.2 4.00651ZM30.5 7.0114C31.163 7.0114 31.7989 7.27522 32.2678 7.74482C32.7366 8.21443 33 8.85135 33 9.51547C33 10.1796 32.7366 10.8165 32.2678 11.2861C31.7989 11.7557 31.163 12.0195 30.5 12.0195C29.837 12.0195 29.2011 11.7557 28.7322 11.2861C28.2634 10.8165 28 10.1796 28 9.51547C28 8.85135 28.2634 8.21443 28.7322 7.74482C29.2011 7.27522 29.837 7.0114 30.5 7.0114ZM20 10.0163C22.6522 10.0163 25.1957 11.0716 27.0711 12.95C28.9464 14.8284 30 17.3761 30 20.0326C30 22.689 28.9464 25.2367 27.0711 27.1151C25.1957 28.9936 22.6522 30.0488 20 30.0488C17.3478 30.0488 14.8043 28.9936 12.9289 27.1151C11.0536 25.2367 10 22.689 10 20.0326C10 17.3761 11.0536 14.8284 12.9289 12.95C14.8043 11.0716 17.3478 10.0163 20 10.0163ZM20 14.0228C18.4087 14.0228 16.8826 14.656 15.7574 15.783C14.6321 16.9101 14 18.4387 14 20.0326C14 21.6265 14.6321 23.1551 15.7574 24.2821C16.8826 25.4092 18.4087 26.0423 20 26.0423C21.5913 26.0423 23.1174 25.4092 24.2426 24.2821C25.3679 23.1551 26 21.6265 26 20.0326C26 18.4387 25.3679 16.9101 24.2426 15.783C23.1174 14.656 21.5913 14.0228 20 14.0228Z" fill="white"/>
</svg>
