<svg width="41" height="38" viewBox="0 0 41 38" fill="none" xmlns="http://www.w3.org/2000/svg">
<path d="M40.498 4.37272C39.0258 5.13573 37.4388 5.63713 35.7944 5.87693C37.477 4.72153 38.7772 2.89031 39.3891 0.6885C37.8021 1.77851 36.043 2.54151 34.1883 2.97752C32.6778 1.1027 30.5554 0.0126953 28.1462 0.0126953C23.6529 0.0126953 19.9818 4.19832 19.9818 9.36496C19.9818 10.1062 20.0583 10.8256 20.1921 11.5014C13.3852 11.109 7.32405 7.38114 3.28963 1.73491C2.58218 3.10832 2.18065 4.72153 2.18065 6.42194C2.18065 9.67016 3.61468 12.5478 5.83266 14.1828C4.4751 14.1828 3.21315 13.7468 2.10417 13.0928C2.10417 13.0928 2.10417 13.0928 2.10417 13.1582C2.10417 17.6926 4.93399 21.4858 8.6816 22.336C7.99327 22.554 7.26669 22.663 6.52099 22.663C6.00474 22.663 5.48849 22.5976 4.99136 22.4886C6.02386 26.1729 9.02577 28.9197 12.6395 28.9851C9.84795 31.5139 6.31067 32.9963 2.44833 32.9963C1.79824 32.9963 1.14814 32.9527 0.498047 32.8655C4.13093 35.5251 8.45216 37.0729 13.0793 37.0729C28.1462 37.0729 36.4254 22.8156 36.4254 10.455C36.4254 10.0408 36.4254 9.64836 36.4063 9.23415C38.0124 7.92615 39.3891 6.26934 40.498 4.37272Z" fill="white"/>
</svg>
